HIERARCHY
ROOT Hips
{
	OFFSET 0.000000 96.379402 3.985525
	CHANNELS 6 Xposition Yposition Zposition Xrotation Yrotation Zrotation
	JOINT Spine
	{
		OFFSET 0.000000 9.226318 1.577133
		CHANNELS 6 Xposition Yposition Zposition Xrotation Yrotation Zrotation
		JOINT Spine1
		{
			OFFSET 0.000000 16.254028 -0.165605
			CHANNELS 6 Xposition Yposition Zposition Xrotation Yrotation Zrotation
			JOINT Spine2
			{
				OFFSET 0.000000 13.639641 -1.292305
				CHANNELS 6 Xposition Yposition Zposition Xrotation Yrotation Zrotation
				JOINT Neck
				{
					OFFSET 0.000000 13.877457 -4.354187
					CHANNELS 6 Xposition Yposition Zposition Xrotation Yrotation Zrotation
					JOINT Neck1
					{
						OFFSET 0.000000 4.340027 0.926895
						CHANNELS 6 Xposition Yposition Zposition Xrotation Yrotation Zrotation
						JOINT Head
						{
							OFFSET 0.000000 4.026611 0.858520
							CHANNELS 6 Xposition Yposition Zposition Xrotation Yrotation Zrotation
							End Site
							{
								OFFSET 0.000000 4.117111 0.000000
							}
						}
					}
				}
				JOINT LeftShoulder
				{
					OFFSET 6.144226 10.187027 -3.793244
					CHANNELS 6 Xposition Yposition Zposition Xrotation Yrotation Zrotation
					JOINT LeftArm
					{
						OFFSET 12.319092 -1.112976 -1.793457
						CHANNELS 6 Xposition Yposition Zposition Xrotation Yrotation Zrotation
						JOINT LeftForeArm
						{
							OFFSET 27.687012 0.000000 0.000000
							CHANNELS 3 Xrotation Yrotation Zrotation
							JOINT LeftHand
							{
								OFFSET 27.873779 0.000000 0.000000
								CHANNELS 3 Xrotation Yrotation Zrotation
								JOINT LeftHandThumb1
								{
									OFFSET 2.378510 -1.002899 2.620936
									CHANNELS 6 Xposition Yposition Zposition Xrotation Yrotation Zrotation
									JOINT LeftHandThumb2
									{
										OFFSET 3.362373 -1.002914 2.839772
										CHANNELS 6 Xposition Yposition Zposition Xrotation Yrotation Zrotation
										JOINT LeftHandThumb3
										{
											OFFSET 4.501793 -1.344498 2.178267
											CHANNELS 6 Xposition Yposition Zposition Xrotation Yrotation Zrotation
											End Site
											{
												OFFSET 5.178680 0.000000 0.000000
											}
										}
									}
								}
								JOINT LeftHandMiddle1
								{
									OFFSET 10.463905 0.614746 0.429787
									CHANNELS 6 Xposition Yposition Zposition Xrotation Yrotation Zrotation
									JOINT LeftHandMiddle2
									{
										OFFSET 5.792099 0.000000 0.000000
										CHANNELS 3 Xrotation Yrotation Zrotation
										JOINT LeftHandMiddle3
										{
											OFFSET 3.713173 0.000000 0.000000
											CHANNELS 3 Xrotation Yrotation Zrotation
											End Site
											{
												OFFSET 3.713173 0.000000 0.000000
											}
										}
									}
								}
								JOINT LeftHandIndex1
								{
									OFFSET 10.394539 0.614746 2.705492
									CHANNELS 6 Xposition Yposition Zposition Xrotation Yrotation Zrotation
									JOINT LeftHandIndex2
									{
										OFFSET 5.549286 0.000000 0.000000
										CHANNELS 3 Xrotation Yrotation Zrotation
										JOINT LeftHandIndex3
										{
											OFFSET 3.391129 0.000000 0.000000
											CHANNELS 3 Xrotation Yrotation Zrotation
											End Site
											{
												OFFSET 3.391121 0.000000 0.000000
											}
										}
									}
								}
								JOINT LeftHandRing1
								{
									OFFSET 10.325165 0.321121 -1.875542
									CHANNELS 6 Xposition Yposition Zposition Xrotation Yrotation Zrotation
									JOINT LeftHandRing2
									{
										OFFSET 5.445221 0.000000 0.000000
										CHANNELS 3 Xrotation Yrotation Zrotation
										JOINT LeftHandRing3
										{
											OFFSET 3.713173 0.000000 0.000000
											CHANNELS 3 Xrotation Yrotation Zrotation
											End Site
											{
												OFFSET 3.713173 0.000000 0.000000
											}
										}
									}
								}
								JOINT LeftHandPinky1
								{
									OFFSET 10.012993 -0.078354 -3.967141
									CHANNELS 6 Xposition Yposition Zposition Xrotation Yrotation Zrotation
									JOINT LeftHandPinky2
									{
										OFFSET 3.676254 0.000000 0.000000
										CHANNELS 3 Xrotation Yrotation Zrotation
										JOINT LeftHandPinky3
										{
											OFFSET 2.811340 0.000000 0.000000
											CHANNELS 3 Xrotation Yrotation Zrotation
											End Site
											{
												OFFSET 2.811340 0.000000 0.000000
											}
										}
									}
								}
							}
						}
					}
				}
				JOINT RightShoulder
				{
					OFFSET -6.140198 10.187027 -3.793244
					CHANNELS 6 Xposition Yposition Zposition Xrotation Yrotation Zrotation
					JOINT RightArm
					{
						OFFSET -12.323120 -1.112976 -1.793457
						CHANNELS 6 Xposition Yposition Zposition Xrotation Yrotation Zrotation
						JOINT RightForeArm
						{
							OFFSET -27.687012 0.000000 0.000000
							CHANNELS 3 Xrotation Yrotation Zrotation
							JOINT RightHand
							{
								OFFSET -27.873779 0.000000 0.000000
								CHANNELS 3 Xrotation Yrotation Zrotation
								JOINT RightHandThumb1
								{
									OFFSET -2.517769 -0.936676 2.513668
									CHANNELS 6 Xposition Yposition Zposition Xrotation Yrotation Zrotation
									JOINT RightHandThumb2
									{
										OFFSET -3.263786 -1.086960 2.966880
										CHANNELS 6 Xposition Yposition Zposition Xrotation Yrotation Zrotation
										JOINT RightHandThumb3
										{
											OFFSET -4.416527 -1.370270 2.135024
											CHANNELS 6 Xposition Yposition Zposition Xrotation Yrotation Zrotation
											End Site
											{
												OFFSET -5.093292 0.000000 0.000000
											}
										}
									}
								}
								JOINT RightHandIndex1
								{
									OFFSET -10.466507 0.489578 2.711963
									CHANNELS 6 Xposition Yposition Zposition Xrotation Yrotation Zrotation
									JOINT RightHandIndex2
									{
										OFFSET -5.376770 0.000000 0.000000
										CHANNELS 3 Xrotation Yrotation Zrotation
										JOINT RightHandIndex3
										{
											OFFSET -3.385460 0.000000 -0.000000
											CHANNELS 3 Xrotation Yrotation Zrotation
											End Site
											{
												OFFSET -3.385475 0.000000 0.000000
											}
										}
									}
								}
								JOINT RightHandMiddle1
								{
									OFFSET -10.759605 0.489578 0.427799
									CHANNELS 6 Xposition Yposition Zposition Xrotation Yrotation Zrotation
									JOINT RightHandMiddle2
									{
										OFFSET -5.616760 0.000000 0.000000
										CHANNELS 3 Xrotation Yrotation Zrotation
										JOINT RightHandMiddle3
										{
											OFFSET -3.736366 0.000000 0.000000
											CHANNELS 3 Xrotation Yrotation Zrotation
											End Site
											{
												OFFSET -3.736351 0.000000 0.000000
											}
										}
									}
								}
								JOINT RightHandRing1
								{
									OFFSET -10.470215 0.387863 -1.936281
									CHANNELS 6 Xposition Yposition Zposition Xrotation Yrotation Zrotation
									JOINT RightHandRing2
									{
										OFFSET -5.401276 0.000000 0.000000
										CHANNELS 3 Xrotation Yrotation Zrotation
										JOINT RightHandRing3
										{
											OFFSET -3.391602 0.000000 0.000000
											CHANNELS 3 Xrotation Yrotation Zrotation
											End Site
											{
												OFFSET -3.391594 0.000000 0.000000
											}
										}
									}
								}
								JOINT RightHandPinky1
								{
									OFFSET -9.971458 -0.119156 -3.954005
									CHANNELS 6 Xposition Yposition Zposition Xrotation Yrotation Zrotation
									JOINT RightHandPinky2
									{
										OFFSET -3.652756 0.000000 0.000000
										CHANNELS 3 Xrotation Yrotation Zrotation
										JOINT RightHandPinky3
										{
											OFFSET -2.782043 0.000000 0.000000
											CHANNELS 3 Xrotation Yrotation Zrotation
											End Site
											{
												OFFSET -2.782036 0.000000 0.000000
											}
										}
									}
								}
							}
						}
					}
				}
			}
		}
	}
	JOINT LeftUpLeg
	{
		OFFSET 9.633789 -3.273254 -0.000001
		CHANNELS 6 Xposition Yposition Zposition Xrotation Yrotation Zrotation
		JOINT LeftLeg
		{
			OFFSET 0.000000 -41.730000 -1.729965
			CHANNELS 6 Xposition Yposition Zposition Xrotation Yrotation Zrotation
			JOINT LeftFoot
			{
				OFFSET 0.012605 -39.189999 -0.847687
				CHANNELS 6 Xposition Yposition Zposition Xrotation Yrotation Zrotation
				JOINT LeftToeBase
				{
					OFFSET -0.183287 -12.193086 8.282264
					CHANNELS 6 Xposition Yposition Zposition Xrotation Yrotation Zrotation
					End Site
					{
						OFFSET 0.000000 -14.741127 0.000000
					}
				}
			}
		}
	}
	JOINT RightUpLeg
	{
		OFFSET -9.633789 -3.273254 -0.000001
		CHANNELS 6 Xposition Yposition Zposition Xrotation Yrotation Zrotation
		JOINT RightLeg
		{
			OFFSET 0.000000 -41.730000 -1.729965
			CHANNELS 6 Xposition Yposition Zposition Xrotation Yrotation Zrotation
			JOINT RightFoot
			{
				OFFSET 0.012607 -39.189999 -0.847687
				CHANNELS 6 Xposition Yposition Zposition Xrotation Yrotation Zrotation
				JOINT RightToeBase
				{
					OFFSET -0.183310 -12.193086 8.282264
					CHANNELS 6 Xposition Yposition Zposition Xrotation Yrotation Zrotation
					End Site
					{
						OFFSET 0.000000 -14.741127 0.000000
					}
				}
			}
		}
	}
}
MOTION
Frames: 4
Frame Time: 0.041667
3.320000 94.470001 1.500000 -1.226606 -1.001471 2.787552 -0.000000 9.226298 1.577100 2.180071 -0.459867 -4.114094 0.000000 16.254004 -0.165600 5.183320 -0.165122 0.158170 0.000000 13.639585 -1.292298 5.185619 -0.155461 0.174726 -0.000000 13.877412 -4.354204 3.679420 -0.191105 -0.227811 0.000000 4.340032 0.926895 4.899239 -0.228363 -0.232026 -0.000001 4.026627 0.858498 -0.000002 0.000000 0.000000 6.144198 10.187014 -3.793202 -1.527000 -3.654704 -6.729262 12.319099 -1.113028 -1.793501 4.157132 9.499609 -80.310566 10.116579 -14.733860 10.688323 40.705428 -11.774188 -8.473059 2.378498 -1.002895 2.620901 6.281966 5.251153 -5.523933 3.362379 -1.002894 2.839800 -13.855714 -11.260815 -5.137558 4.501801 -1.344514 2.178299 -12.731853 -2.344962 1.356550 10.463900 0.614798 0.429801 0.169596 -1.954292 3.236698 -0.000000 -0.007800 -0.075900 -0.000001 -0.007800 -0.075900 10.394502 0.614798 2.705498 -0.187134 -3.403082 3.506097 0.000001 -0.001101 -0.011100 -0.000001 -0.001100 -0.011100 10.325188 0.321112 -1.875499 0.464434 -0.707677 2.934046 -0.000194 -0.051800 -0.503701 -0.000197 -0.051800 -0.503700 10.013000 -0.078304 -3.967101 0.622095 -0.039598 3.052626 -0.004601 -0.234000 -2.278019 -0.004705 -0.233999 -2.278019 -6.140201 10.187030 -3.793202 -1.445858 2.472106 7.283894 -12.323113 -1.112975 -1.793505 -12.224971 24.875163 77.207051 21.993756 13.692236 -6.086496 28.938951 14.741579 -3.790565 -2.517797 -0.936707 2.513704 7.181847 -7.351808 5.253856 -3.263836 -1.086992 2.966897 -14.317087 12.783529 6.384096 -4.416507 -1.370268 2.135000 -12.506641 2.172639 -0.859899 -10.466500 0.489605 2.712001 -0.218376 3.329569 -2.726817 -0.000004 0.000903 0.011103 0.000001 0.000903 0.011213 -10.759597 0.489593 0.427802 0.157384 1.879975 -2.487863 0.000000 0.006183 0.075988 -0.000000 0.006185 0.075989 -10.470204 0.387895 -1.936303 0.467928 0.630889 -2.210853 -0.000200 0.041210 0.504484 -0.000201 0.041208 0.504489 -9.971505 -0.119104 -3.954001 0.634100 -0.032497 -2.343842 -0.003702 0.186201 2.282011 -0.003701 0.186201 2.282012 9.633800 -3.273302 0.000000 -6.748328 2.529967 -3.587235 0.000001 -41.729996 -1.729999 20.244727 2.380195 -0.999922 0.012600 -39.189999 -0.847700 -11.524132 -0.291209 -4.211076 -0.183300 -12.193100 8.282299 0.000000 -0.000000 0.000000 -9.633801 -3.273303 0.000001 -19.996902 8.241427 1.048083 -0.000001 -41.729992 -1.729999 43.470162 -1.712751 -5.612525 0.012601 -39.189995 -0.847699 -5.012339 -8.002975 4.964601 -0.183301 -12.193100 8.282300 0.000000 -0.000000 -0.000000 
3.272500 94.534996 1.485000 -1.122173 -0.823936 2.725958 -0.000000 9.226297 1.577100 2.156152 -0.371909 -4.070120 -0.000000 16.254019 -0.165601 5.138320 0.016966 0.192506 -0.000000 13.639591 -1.292299 5.139119 0.026502 0.203817 -0.000000 13.877424 -4.354201 3.657680 -0.282185 -0.361618 0.000001 4.339999 0.926903 5.069276 -0.500460 -0.060369 0.000000 4.026596 0.858502 0.000000 -0.000000 -0.000000 6.144200 10.187016 -3.793201 -1.462135 -3.411853 -6.565293 12.319091 -1.112997 -1.793502 3.989351 9.406408 -80.597373 10.118638 -14.754325 10.740583 40.758276 -11.451487 -9.129897 2.378505 -1.002880 2.620900 6.281971 5.251153 -5.523933 3.362399 -1.002893 2.839799 -13.855710 -11.260813 -5.137557 4.501796 -1.344498 2.178300 -12.731856 -2.344963 1.356549 10.463907 0.614813 0.429798 0.169602 -1.954291 3.236698 -0.000005 -0.007800 -0.075900 -0.000000 -0.007800 -0.075900 10.394509 0.614813 2.705499 -0.187131 -3.403082 3.506097 0.000000 -0.001101 -0.011100 -0.000003 -0.001100 -0.011100 10.325202 0.321112 -1.875501 0.464438 -0.707677 2.934046 -0.000201 -0.051800 -0.503700 -0.000198 -0.051800 -0.503700 10.013009 -0.078289 -3.967100 0.622099 -0.039598 3.052626 -0.004599 -0.234000 -2.278019 -0.004704 -0.234000 -2.278019 -6.140202 10.187022 -3.793199 -1.489295 2.743091 7.295792 -12.323106 -1.113003 -1.793495 -12.070536 23.444039 76.868896 22.316812 12.083943 -5.770388 30.601450 14.003884 -4.163522 -2.517791 -0.936707 2.513701 7.181847 -7.351806 5.253856 -3.263803 -1.086978 2.966899 -14.317084 12.783529 6.384098 -4.416507 -1.370301 2.134997 -12.506642 2.172637 -0.859899 -10.466485 0.489606 2.712002 -0.218378 3.329574 -2.726819 -0.000002 0.000901 0.011101 -0.000001 0.000900 0.011212 -10.759580 0.489601 0.427803 0.157384 1.879977 -2.487864 -0.000001 0.006185 0.075990 -0.000001 0.006183 0.075990 -10.470187 0.387909 -1.936299 0.467928 0.630888 -2.210854 -0.000202 0.041210 0.504487 -0.000201 0.041211 0.504486 -9.971488 -0.119101 -3.953997 0.634100 -0.032495 -2.343843 -0.003700 0.186201 2.282016 -0.003700 0.186201 2.282017 9.633799 -3.273308 -0.000000 -6.878185 2.604884 -3.406742 0.000002 -41.730000 -1.729998 20.230018 2.228474 -1.015240 0.012600 -39.189995 -0.847700 -11.470618 -0.480531 -4.220910 -0.183300 -12.193102 8.282300 -0.000000 0.000000 0.000000 -9.633800 -3.273318 0.000002 -19.910095 7.873615 0.838172 0.000000 -41.730003 -1.730000 43.090383 -1.703755 -5.329317 0.012601 -39.189995 -0.847701 -5.202034 -7.768883 4.956646 -0.183299 -12.193099 8.282300 -0.000000 -0.000000 0.000000 
3.245000 94.615005 1.530000 -1.047225 -0.346635 2.667398 0.000001 9.226303 1.577100 2.110380 -0.263617 -4.023477 -0.000000 16.254004 -0.165599 5.029978 0.240944 0.265139 0.000000 13.639605 -1.292300 5.029280 0.250805 0.270521 -0.000000 13.877418 -4.354201 3.666845 -0.463151 -0.647937 0.000000 4.339995 0.926902 5.429264 -1.063181 0.423129 -0.000001 4.026596 0.858501 0.000000 0.000000 -0.000000 6.144200 10.187016 -3.793200 -1.365991 -2.951983 -6.398251 12.319098 -1.113011 -1.793502 3.748486 9.280578 -80.899568 10.456312 -14.703037 10.875383 41.136973 -10.892585 -10.223882 2.378484 -1.002895 2.620898 6.281968 5.251154 -5.523934 3.362398 -1.002893 2.839799 -13.855710 -11.260815 -5.137557 4.501787 -1.344497 2.178297 -12.731858 -2.344963 1.356550 10.463884 0.614798 0.429800 0.169599 -1.954292 3.236698 0.000002 -0.007800 -0.075900 0.000001 -0.007800 -0.075900 10.394485 0.614798 2.705501 -0.187132 -3.403082 3.506097 0.000000 -0.001100 -0.011100 -0.000001 -0.001100 -0.011100 10.325179 0.321097 -1.875501 0.464435 -0.707677 2.934047 -0.000202 -0.051800 -0.503700 -0.000199 -0.051800 -0.503700 10.012984 -0.078304 -3.967100 0.622102 -0.039598 3.052627 -0.004601 -0.234000 -2.278019 -0.004699 -0.234000 -2.278019 -6.140201 10.187013 -3.793202 -1.619560 3.148748 7.686217 -12.323097 -1.112992 -1.793502 -11.202017 16.180529 75.598146 23.218156 10.883841 -6.943911 37.318026 10.753919 -3.917046 -2.517808 -0.936693 2.513700 7.181847 -7.351809 5.253852 -3.263803 -1.086979 2.966899 -14.317086 12.783530 6.384095 -4.416495 -1.370299 2.135003 -12.506644 2.172640 -0.859901 -10.466503 0.489614 2.712000 -0.218377 3.329571 -2.726816 -0.000000 0.000900 0.011105 -0.000001 0.000899 0.011213 -10.759603 0.489604 0.427801 0.157384 1.879976 -2.487861 -0.000000 0.006185 0.075988 0.000001 0.006185 0.075989 -10.470198 0.387909 -1.936299 0.467929 0.630887 -2.210853 -0.000201 0.041208 0.504487 -0.000200 0.041209 0.504486 -9.971513 -0.119103 -3.953998 0.634101 -0.032500 -2.343842 -0.003699 0.186202 2.282016 -0.003699 0.186200 2.282018 9.633801 -3.273297 -0.000000 -7.041435 2.860512 -3.125248 0.000000 -41.730000 -1.729999 20.377347 1.876550 -1.097952 0.012599 -39.189999 -0.847700 -11.516309 -1.018824 -4.211641 -0.183298 -12.193100 8.282300 -0.000000 0.000000 -0.000000 -9.633801 -3.273304 0.000001 -19.525426 7.281485 0.413860 0.000000 -41.730003 -1.730002 42.397129 -1.762072 -4.879338 0.012601 -39.190002 -0.847699 -5.726735 -7.476867 4.953313 -0.183298 -12.193100 8.282301 -0.000002 -0.000000 0.000000 
3.232500 94.695000 1.627500 -0.985329 0.546127 2.595390 -0.000001 9.226306 1.577100 2.037838 -0.160270 -3.983764 -0.000000 16.254004 -0.165599 4.846595 0.452848 0.342411 -0.000000 13.639614 -1.292300 4.844549 0.462663 0.340942 -0.000001 13.877425 -4.354205 3.928623 -0.766053 -1.018369 0.000000 4.340002 0.926906 5.586466 -1.906678 1.289883 -0.000000 4.026611 0.858495 -0.000002 -0.000000 -0.000000 6.144201 10.187014 -3.793203 -1.251204 -2.337306 -6.244988 12.319097 -1.112988 -1.793502 3.538395 9.192592 -81.176914 11.149468 -14.574179 11.097200 41.892255 -10.284802 -11.315885 2.378508 -1.002895 2.620899 6.281971 5.251153 -5.523934 3.362401 -1.002892 2.839800 -13.855712 -11.260814 -5.137558 4.501790 -1.344482 2.178297 -12.731855 -2.344963 1.356549 10.463906 0.614814 0.429798 0.169603 -1.954292 3.236698 0.000001 -0.007800 -0.075900 -0.000002 -0.007800 -0.075900 10.394500 0.614813 2.705499 -0.187127 -3.403082 3.506097 -0.000001 -0.001100 -0.011100 0.000006 -0.001100 -0.011100 10.325203 0.321112 -1.875499 0.464436 -0.707677 2.934046 -0.000199 -0.051800 -0.503700 -0.000200 -0.051800 -0.503700 10.013015 -0.078288 -3.967103 0.622103 -0.039598 3.052627 -0.004602 -0.234000 -2.278019 -0.004698 -0.234000 -2.278020 -6.140202 10.187011 -3.793203 -1.789732 3.329533 8.487524 -12.323094 -1.113007 -1.793495 -10.677440 4.570430 73.361225 22.417048 11.649379 -10.323147 45.452389 8.726291 2.944208 -2.517805 -0.936704 2.513702 7.181847 -7.351808 5.253856 -3.263801 -1.086995 2.966899 -14.317085 12.783529 6.384097 -4.416513 -1.370297 2.134998 -12.506644 2.172640 -0.859900 -10.466509 0.489607 2.711998 -0.218377 3.329571 -2.726817 -0.000000 0.000899 0.011102 0.000000 0.000900 0.011213 -10.759614 0.489609 0.427799 0.157384 1.879975 -2.487862 -0.000000 0.006184 0.075989 0.000001 0.006185 0.075990 -10.470212 0.387899 -1.936300 0.467929 0.630887 -2.210853 -0.000200 0.041209 0.504491 -0.000200 0.041210 0.504490 -9.971501 -0.119096 -3.953999 0.634101 -0.032498 -2.343843 -0.003701 0.186201 2.282017 -0.003700 0.186201 2.282018 9.633799 -3.273311 -0.000000 -7.245962 3.288614 -2.727305 0.000001 -41.730007 -1.730001 20.669457 1.302776 -1.246583 0.012599 -39.189995 -0.847700 -11.682887 -1.917418 -4.172608 -0.183297 -12.193097 8.282299 0.000000 0.000000 -0.000000 -9.633802 -3.273305 0.000000 -18.824418 6.423331 -0.196101 0.000001 -41.730000 -1.730002 41.424332 -1.948370 -4.253690 0.012600 -39.190002 -0.847700 -6.559574 -7.140185 4.891805 -0.183300 -12.193100 8.282299 0.000001 0.000000 0.000000 
